<svg width="240" height="64" viewBox="0 0 240 64" fill="none" xmlns="http://www.w3.org/2000/svg">
  <rect width="64" height="64" rx="20" fill="#8E4833"/>
  <path d="M18 34C18 28.4772 22.4772 24 28 24H36C41.5228 24 46 28.4772 46 34V46H18V34Z" fill="#FFF7F2"/>
  <path d="M32 16L36.5 20.5L32 25L27.5 20.5L32 16Z" fill="#F3C8A7"/>
  <path d="M18 33H46" stroke="#F3C8A7" stroke-width="3"/>
  <path d="M32 24V46" stroke="#F3C8A7" stroke-width="3"/>
  <path d="M34 16C38.5 12 45 12.5 46.5 18C40.5 19 37 20.5 32 25" stroke="#FFF7F2" stroke-width="3" stroke-linecap="round"/>
  <path d="M30 16C25.5 12 19 12.5 17.5 18C23.5 19 27 20.5 32 25" stroke="#FFF7F2" stroke-width="3" stroke-linecap="round"/>
  <path d="M84 24.2H97.9V28.5H89.2V34.2H96.7V38.5H89.2V48H84V24.2Z" fill="#2F241F"/>
  <path d="M101.5 24.2H106.7V48H101.5V24.2Z" fill="#2F241F"/>
  <path d="M111.5 24.2H116.7V43.6H126.2V48H111.5V24.2Z" fill="#2F241F"/>
  <path d="M129.4 24.2H134.6V33.9L142.5 24.2H148.7L139.7 35L149 48H142.5L136.4 39.1L134.6 41.2V48H129.4V24.2Z" fill="#2F241F"/>
  <path d="M153.2 24.2H169.3V28.5H158.4V33.6H168V37.9H158.4V43.7H169.7V48H153.2V24.2Z" fill="#2F241F"/>
  <path d="M174 24.2H179.2V48H174V24.2Z" fill="#2F241F"/>
  <path d="M184 24.2H189.2V34.2L197.1 24.2H203.3L194.3 35.3L203.6 48H197.1L191 39.2L189.2 41.4V48H184V24.2Z" fill="#2F241F"/>
  <path d="M207.2 24.2H223.3V28.5H212.4V33.6H222V37.9H212.4V43.7H223.7V48H207.2V24.2Z" fill="#2F241F"/>
</svg>
