<svg width="640" height="640" viewBox="0 0 640 640" fill="none" xmlns="http://www.w3.org/2000/svg">
  <rect width="640" height="640" rx="48" fill="#FFF4EC"/>
  <circle cx="511" cy="129" r="65" fill="#F3C8A7"/>
  <circle cx="130" cy="164" r="44" fill="#F7DED0"/>
  <circle cx="126" cy="494" r="78" fill="#F3C8A7" fill-opacity="0.65"/>
  <rect x="164" y="224" width="312" height="220" rx="28" fill="#8E4833"/>
  <rect x="144" y="198" width="352" height="72" rx="30" fill="#A85A42"/>
  <path d="M320 168C291 143 241 145 230 185C269 190 291 204 320 238" stroke="#8E4833" stroke-width="18" stroke-linecap="round"/>
  <path d="M320 168C349 143 399 145 410 185C371 190 349 204 320 238" stroke="#8E4833" stroke-width="18" stroke-linecap="round"/>
  <path d="M320 198V444" stroke="#FFF4EC" stroke-width="20"/>
  <path d="M164 272H476" stroke="#FFF4EC" stroke-width="20"/>
  <rect x="206" y="474" width="228" height="30" rx="15" fill="#D59A78"/>
  <rect x="246" y="518" width="146" height="18" rx="9" fill="#E6B99D"/>
  <circle cx="482" cy="458" r="18" fill="#D59A78"/>
  <circle cx="156" cy="226" r="12" fill="#D59A78"/>
</svg>
