<svg width="560" height="420" viewBox="0 0 560 420" fill="none" xmlns="http://www.w3.org/2000/svg">
  <rect width="560" height="420" rx="36" fill="#F8F8F8"/>
  <circle cx="444" cy="98" r="64" fill="#FFE6E8"/>
  <circle cx="132" cy="102" r="48" fill="#FFF1F2"/>
  <rect x="204" y="168" width="154" height="168" rx="24" fill="#FFFFFF" stroke="#E7E7E7" stroke-width="2"/>
  <path d="M280 152V292" stroke="#1A1A1A" stroke-width="8" stroke-linecap="round"/>
  <path d="M242 196C242 176 258 160 278 160C298 160 314 176 314 196C314 216 298 232 278 232C258 232 242 216 242 196Z" fill="#E50914"/>
  <path d="M286 182C286 166 300 154 316 154C332 154 346 166 346 182C346 198 332 212 316 212C300 212 286 198 286 182Z" fill="#FF8D94"/>
  <path d="M212 190C212 172 226 158 244 158C262 158 276 172 276 190C276 208 262 222 244 222C226 222 212 208 212 190Z" fill="#FFB3B8"/>
  <path d="M244 236C244 220 258 208 274 208C290 208 304 220 304 236C304 252 290 266 274 266C258 266 244 252 244 236Z" fill="#F7C7CB"/>
  <path d="M314 238C314 222 328 210 344 210C360 210 374 222 374 238C374 254 360 268 344 268C328 268 314 254 314 238Z" fill="#FFD8DB"/>
  <path d="M220 326C240 284 260 264 280 264C300 264 320 286 340 326" stroke="#2F7A52" stroke-width="10" stroke-linecap="round"/>
  <rect x="88" y="280" width="112" height="74" rx="18" fill="#1A1A1A"/>
  <rect x="100" y="292" width="88" height="50" rx="12" fill="#FFFFFF"/>
  <path d="M126 317H162" stroke="#E50914" stroke-width="6" stroke-linecap="round"/>
  <path d="M126 330H154" stroke="#C7C7C7" stroke-width="6" stroke-linecap="round"/>
  <path d="M376 314C408 276 446 266 486 274C464 326 426 348 384 344" fill="#FFFFFF"/>
  <path d="M376 314C408 276 446 266 486 274C464 326 426 348 384 344" stroke="#E5E5E5" stroke-width="2"/>
  <path d="M386 314C410 292 436 286 462 292" stroke="#E50914" stroke-width="8" stroke-linecap="round"/>
  <path d="M392 332H444" stroke="#1A1A1A" stroke-width="8" stroke-linecap="round"/>
</svg>
